<svg width="118" height="119" viewBox="0 0 118 119" fill="none" xmlns="http://www.w3.org/2000/svg">
<circle cx="59" cy="59" r="59" fill="#32318C"/>
<circle cx="58.6434" cy="59.6434" r="51.6434" fill="#38379F"/>
<circle cx="58.6683" cy="59.6683" r="42.6683" fill="#4948C1"/>
<circle cx="58.5761" cy="59.5761" r="34.5761" fill="#F33030"/>
<ellipse cx="58.3367" cy="59.3367" rx="26.3367" ry="26.3367" fill="#FF4A4A"/>
<ellipse cx="58.3915" cy="59.3915" rx="18.3915" ry="18.3915" fill="#FF6B6B"/>
<line x1="33.75" y1="50" x2="33.75" y2="68" stroke="white" stroke-width="1.5"/>
<line x1="37.75" y1="47" x2="37.75" y2="71" stroke="white" stroke-width="1.5"/>
<line x1="41.75" y1="51" x2="41.75" y2="68" stroke="white" stroke-width="1.5"/>
<line x1="45.75" y1="42" x2="45.75" y2="77" stroke="white" stroke-width="1.5"/>
<line x1="49.75" y1="37" x2="49.75" y2="82" stroke="white" stroke-width="1.5"/>
<line x1="53.75" y1="43" x2="53.75" y2="75" stroke="white" stroke-width="1.5"/>
<line x1="56.75" y1="51" x2="56.75" y2="68" stroke="white" stroke-width="1.5"/>
<line x1="60.75" y1="50" x2="60.75" y2="69" stroke="white" stroke-width="1.5"/>
<line x1="65.75" y1="46" x2="65.75" y2="73" stroke="white" stroke-width="1.5"/>
<line x1="69.75" y1="49" x2="69.75" y2="69" stroke="white" stroke-width="1.5"/>
<line x1="73.75" y1="44" x2="73.75" y2="75" stroke="white" stroke-width="1.5"/>
<line x1="77.75" y1="41" x2="77.75" y2="78" stroke="white" stroke-width="1.5"/>
<line x1="81.75" y1="46" x2="81.75" y2="73" stroke="white" stroke-width="1.5"/>
<line x1="85.75" y1="52" x2="85.75" y2="67" stroke="white" stroke-width="1.5"/>
</svg>
